<svg xmlns="http://www.w3.org/2000/svg"  viewBox="0 0 100 100" width="100px" height="100px" baseProfile="basic"><circle cx="13" cy="30" r="2" fill="#ee3e54"/><circle cx="77" cy="14" r="1" fill="#f1bc19"/><circle cx="50" cy="51" r="37" fill="#fce0a2"/><circle cx="83" cy="16" r="4" fill="#f1bc19"/><circle cx="87" cy="25" r="2" fill="#ee3e54"/><circle cx="81" cy="77" r="2" fill="#fbcd59"/><circle cx="15" cy="64" r="4" fill="#fbcd59"/><circle cx="25" cy="88" r="2" fill="#ee3e54"/><circle cx="39.629" cy="78.416" r="2.5" fill="#fff"/><circle cx="21" cy="68" r="1" fill="#f1bc19"/><circle cx="80" cy="35" r="1" fill="#fff"/><g><path fill="#6475a4" d="M68.308,70.992c-0.504,0-1.004-0.202-1.363-0.596c-0.659-0.727-0.584-1.833,0.167-2.47 c5.02-4.255,8.145-10.165,8.145-16.788c0-6.243-2.825-12.279-8.145-16.788c-0.752-0.637-0.827-1.743-0.167-2.47 c0.66-0.727,1.805-0.799,2.557-0.162c6.139,5.203,9.251,12.077,9.251,19.373c0,7.616-3.459,14.557-9.251,19.466 C69.158,70.849,68.731,70.992,68.308,70.992z"/><path fill="#472b29" d="M68.308,71.692c-0.719,0-1.404-0.301-1.881-0.826c-0.446-0.493-0.669-1.125-0.626-1.782 c0.043-0.659,0.349-1.26,0.859-1.693c5.093-4.316,7.897-10.089,7.897-16.254S71.753,39.2,66.66,34.884 c-0.511-0.433-0.816-1.034-0.859-1.693c-0.043-0.656,0.18-1.289,0.626-1.781c0.908-1.001,2.49-1.104,3.527-0.226 c6.126,5.191,9.499,12.261,9.499,19.907c0,7.706-3.373,14.808-9.499,20C69.497,71.479,68.912,71.692,68.308,71.692z M68.308,31.982c-0.312,0-0.623,0.125-0.844,0.369c-0.189,0.208-0.284,0.475-0.266,0.749c0.018,0.277,0.148,0.531,0.366,0.716 c5.413,4.587,8.394,10.738,8.394,17.322s-2.98,12.735-8.394,17.322c-0.218,0.185-0.349,0.439-0.366,0.716 c-0.019,0.274,0.076,0.54,0.266,0.749c0.391,0.431,1.141,0.476,1.586,0.098c5.806-4.921,9.003-11.645,9.003-18.932 c0-7.228-3.197-13.918-9.003-18.839C68.836,32.071,68.571,31.982,68.308,31.982z"/></g><g><path fill="#9797ac" d="M55.552,50.238c0.388-2.009,3.231-8.983-7.895-17.558c0,0,0.206,5.181-7.741,16.355 c-7.951,11.17,4.578,17.531,4.578,17.531s-3.141-5.369,0.233-11.517c1.294-2.358,1.891-2.296,4.755-8.377 c0,0,1.998,2.06,1.156,6.996c-1.259,7.459,4.702,4.763,4.806,4.867c1.203,3.608,0.512,5.721-0.913,8.03 c-0.26,0.149,13.048-9.111,4.629-18.733C58.182,49.058,56.72,49.935,55.552,50.238z"/><path fill="#472b29" d="M54.53,67.267c-0.229,0-0.451-0.11-0.585-0.312c-0.143-0.215-0.117-0.509,0.013-0.743 l-0.021-0.013c1.278-2.074,1.865-3.895,1.036-6.819c-0.987,0.259-2.782,0.579-4.038-0.54c-1.083-0.967-1.415-2.746-0.986-5.288 c0.46-2.699,0.036-4.443-0.389-5.418c-1.564,3.22-2.37,4.399-3.09,5.453c-0.385,0.562-0.717,1.048-1.129,1.799 c-3.133,5.708-0.361,10.621-0.242,10.828c0.156,0.268,0.116,0.607-0.097,0.833s-0.552,0.284-0.824,0.144 c-0.243-0.123-5.962-3.082-7.32-8.605c-0.784-3.185,0.054-6.535,2.488-9.955c7.65-10.756,7.613-15.876,7.612-15.927 c-0.007-0.27,0.142-0.522,0.383-0.644c0.242-0.122,0.531-0.096,0.744,0.067c9.718,7.49,9.106,13.938,8.45,16.966 c0.725-0.386,1.492-0.962,2.078-1.696c0.129-0.162,0.323-0.259,0.531-0.263c0.212,0.002,0.406,0.083,0.542,0.239 c2.229,2.546,3.211,5.311,2.919,8.215c-0.574,5.723-5.948,10.234-7.581,11.481l-0.002-0.002 c-0.043,0.042-0.091,0.078-0.143,0.108C54.77,67.236,54.649,67.267,54.53,67.267z M48.216,34.02 c-0.404,2.246-1.941,7.284-7.729,15.421c-2.186,3.071-2.95,6.032-2.271,8.801c0.748,3.057,3.111,5.287,4.796,6.538 c-0.673-2.234-1.144-5.974,1.104-10.067c0.444-0.811,0.812-1.347,1.199-1.916c0.771-1.128,1.645-2.406,3.535-6.422 c0.099-0.208,0.292-0.354,0.519-0.392c0.226-0.037,0.458,0.038,0.617,0.203c0.092,0.094,2.235,2.375,1.345,7.601 c-0.339,2.005-0.153,3.392,0.538,4.009c0.87,0.776,2.499,0.307,3.111,0.13c0.308-0.088,0.656-0.188,0.96,0.114 c0.077,0.077,0.136,0.171,0.17,0.275c0.761,2.283,0.812,4.03,0.395,5.605c1.981-1.965,4.361-4.998,4.71-8.472 c0.229-2.279-0.47-4.477-2.077-6.545c-0.962,0.949-2.229,1.708-3.408,2.014c-0.231,0.061-0.479-0.002-0.655-0.167 c-0.175-0.164-0.253-0.407-0.208-0.643c0.033-0.17,0.082-0.374,0.14-0.609C55.61,46.998,57.004,41.261,48.216,34.02z"/></g><g><path fill="#6475a4" d="M31.923,70.992c0.504,0,1.004-0.202,1.363-0.596c0.659-0.727,0.584-1.833-0.167-2.47 c-5.02-4.255-8.145-10.165-8.145-16.788c0-6.243,2.825-12.279,8.145-16.788c0.752-0.637,0.827-1.743,0.167-2.47 c-0.66-0.727-1.805-0.799-2.557-0.162c-6.139,5.203-9.251,12.077-9.251,19.373c0,7.616,3.459,14.557,9.251,19.466 C31.073,70.849,31.499,70.992,31.923,70.992z"/><path fill="#472b29" d="M31.923,71.692c-0.604,0-1.189-0.213-1.646-0.6c-6.126-5.192-9.499-12.295-9.499-20 c0-7.646,3.373-14.716,9.499-19.907c1.036-0.878,2.619-0.776,3.527,0.226c0.446,0.493,0.669,1.125,0.626,1.782 c-0.043,0.659-0.349,1.26-0.859,1.693c-5.093,4.316-7.897,10.088-7.897,16.253s2.805,11.938,7.897,16.254 c0.511,0.433,0.816,1.034,0.859,1.693c0.043,0.656-0.18,1.289-0.626,1.781C33.327,71.391,32.642,71.692,31.923,71.692z M31.923,31.982c-0.264,0-0.528,0.089-0.742,0.27c-5.806,4.92-9.003,11.611-9.003,18.839c0,7.287,3.197,14.011,9.003,18.932 c0.445,0.377,1.197,0.333,1.586-0.099c0.189-0.208,0.284-0.475,0.266-0.749c-0.018-0.277-0.148-0.531-0.366-0.716 c-5.413-4.587-8.394-10.739-8.394-17.322s2.98-12.735,8.394-17.322c0.218-0.185,0.349-0.439,0.366-0.716 c0.019-0.274-0.076-0.54-0.266-0.749C32.546,32.107,32.235,31.982,31.923,31.982z"/></g><g><path fill="#472b29" d="M53.813,44.96c-0.213,0-0.409-0.137-0.477-0.35c-0.005-0.014-0.443-1.392-1.262-2.891 c-0.133-0.242-0.044-0.546,0.199-0.679c0.239-0.132,0.546-0.043,0.678,0.199c0.868,1.589,1.319,3.01,1.338,3.07 c0.083,0.263-0.063,0.544-0.326,0.627C53.914,44.953,53.863,44.96,53.813,44.96z"/></g><g><path fill="#472b29" d="M44.542,46.982c-0.103,0-0.205-0.031-0.294-0.096c-0.224-0.162-0.272-0.475-0.11-0.698l0.13-0.178 c0.527-0.725,1.025-1.41,1.527-2.234c1.755-2.886,3.007-6.465,3.019-6.501c0.053-0.152,0.176-0.27,0.331-0.315 c0.151-0.045,0.32-0.015,0.448,0.085c0.058,0.044,1.413,1.107,2.354,2.578c0.149,0.232,0.081,0.542-0.151,0.69 c-0.23,0.148-0.541,0.083-0.69-0.151c-0.502-0.783-1.151-1.452-1.6-1.869c-0.457,1.205-1.498,3.771-2.857,6.003 c-0.522,0.86-1.032,1.561-1.572,2.303l-0.13,0.178C44.849,46.911,44.696,46.982,44.542,46.982z"/></g><g><path fill="#472b29" d="M42.417,49.947c-0.111,0-0.223-0.037-0.315-0.112c-0.214-0.174-0.247-0.489-0.072-0.703 c0.007-0.009,0.371-0.459,1.017-1.38c0.158-0.228,0.47-0.28,0.696-0.123c0.226,0.159,0.281,0.47,0.122,0.696 c-0.679,0.969-1.06,1.438-1.06,1.438C42.706,49.884,42.562,49.947,42.417,49.947z"/></g><g><path fill="#472b29" d="M58.131,58.57c-0.104,0-0.21-0.033-0.301-0.1c-0.221-0.166-0.265-0.479-0.099-0.7l0.494-0.643 c0.165-0.221,0.48-0.264,0.699-0.1c0.222,0.166,0.266,0.479,0.1,0.7L58.53,58.37C58.433,58.501,58.282,58.57,58.131,58.57z"/></g><g><path fill="#472b29" d="M59.465,56.495c-0.071,0-0.143-0.015-0.211-0.046c-0.25-0.116-0.358-0.414-0.242-0.664 c0.662-1.427,0.58-2.928-0.221-4.015c-0.164-0.222-0.116-0.535,0.105-0.699c0.224-0.164,0.535-0.117,0.699,0.106 c1.021,1.385,1.142,3.265,0.322,5.028C59.834,56.388,59.653,56.495,59.465,56.495z"/></g></svg>